<svg width="25" height="24" viewBox="0 0 25 24" fill="none" xmlns="http://www.w3.org/2000/svg">
<g clip-path="url(#clip0_5_175)">
<path fill-rule="evenodd" clip-rule="evenodd" d="M11.2422 14.805C13.3061 13.431 14.2269 10.8677 13.5092 8.49441C12.7914 6.12114 10.6044 4.49772 8.125 4.49772C5.64558 4.49772 3.45857 6.12114 2.74084 8.49441C2.0231 10.8677 2.94393 13.431 5.00781 14.805C3.18952 15.4752 1.63666 16.7153 0.580938 18.3403C0.429932 18.5647 0.411484 18.8531 0.53266 19.095C0.653836 19.3368 0.895857 19.4947 1.16603 19.5081C1.43621 19.5215 1.69266 19.3884 1.83719 19.1597C3.22076 17.0317 5.58677 15.7479 8.125 15.7479C10.6632 15.7479 13.0292 17.0317 14.4128 19.1597C14.6417 19.4999 15.1014 19.5932 15.4448 19.3692C15.7882 19.1452 15.8881 18.6869 15.6691 18.3403C14.6133 16.7153 13.0605 15.4752 11.2422 14.805ZM4 10.125C4 7.84683 5.84683 6 8.125 6C10.4032 6 12.25 7.84683 12.25 10.125C12.25 12.4032 10.4032 14.25 8.125 14.25C5.8479 14.2474 4.00258 12.4021 4 10.125ZM23.7006 19.3781C23.3537 19.6043 22.8891 19.5066 22.6628 19.1597C21.2808 17.0303 18.9136 15.7466 16.375 15.75C15.9608 15.75 15.625 15.4142 15.625 15C15.625 14.5858 15.9608 14.25 16.375 14.25C18.0363 14.2484 19.5346 13.2504 20.1761 11.718C20.8177 10.1855 20.4773 8.4178 19.3126 7.23312C18.148 6.04844 16.3863 5.67805 14.8431 6.29344C14.5927 6.40171 14.3031 6.36541 14.0872 6.19864C13.8712 6.03188 13.7628 5.76096 13.8042 5.49125C13.8456 5.22154 14.0302 4.99558 14.2863 4.90125C16.9609 3.83457 20.0092 4.96001 21.349 7.50883C22.6888 10.0576 21.8874 13.2067 19.4922 14.805C21.3105 15.4752 22.8633 16.7153 23.9191 18.3403C24.1453 18.6872 24.0475 19.1518 23.7006 19.3781Z" fill="#4A789C"/>
</g>
<defs>
<clipPath id="clip0_5_175">
<rect width="24" height="24" fill="white" transform="translate(0.25)"/>
</clipPath>
</defs>
</svg>
