<svg width="25" height="24" viewBox="0 0 25 24" fill="none" xmlns="http://www.w3.org/2000/svg">
<g clip-path="url(#clip0_5_180)">
<path fill-rule="evenodd" clip-rule="evenodd" d="M21.5438 16.4944C21.0234 15.5981 20.25 13.0622 20.25 9.75C20.25 5.60786 16.8921 2.25 12.75 2.25C8.60786 2.25 5.25 5.60786 5.25 9.75C5.25 13.0631 4.47563 15.5981 3.95531 16.4944C3.68487 16.9581 3.6829 17.5311 3.95016 17.9967C4.21741 18.4623 4.71313 18.7496 5.25 18.75H9.07594C9.43267 20.4956 10.9684 21.7492 12.75 21.7492C14.5316 21.7492 16.0673 20.4956 16.4241 18.75H20.25C20.7867 18.7493 21.2821 18.4619 21.5491 17.9963C21.8162 17.5308 21.8141 16.958 21.5438 16.4944ZM12.75 20.25C11.7967 20.2497 10.9471 19.6487 10.6294 18.75H14.8706C14.5529 19.6487 13.7033 20.2497 12.75 20.25ZM5.25 17.25C5.97188 16.0088 6.75 13.1325 6.75 9.75C6.75 6.43629 9.43629 3.75 12.75 3.75C16.0637 3.75 18.75 6.43629 18.75 9.75C18.75 13.1297 19.5263 16.0059 20.25 17.25H5.25Z" fill="#4A789C"/>
</g>
<defs>
<clipPath id="clip0_5_180">
<rect width="24" height="24" fill="white" transform="translate(0.75)"/>
</clipPath>
</defs>
</svg>
